HIERARCHY
ROOT Hips
{
	OFFSET 0.000000 0.000000 0.000000 
	CHANNELS 6 Xposition Yposition Zposition Zrotation Yrotation Xrotation
	JOINT LeftUpLeg
	{
		OFFSET 1.363060 -1.794630 0.839290 
		CHANNELS 3 Zrotation Yrotation Xrotation
		JOINT LeftLeg
		{
			OFFSET 2.448110 -6.726130 0.000000 
			CHANNELS 3 Zrotation Yrotation Xrotation
			JOINT LeftFoot
			{
				OFFSET 2.562200 -7.039590 0.000000 
				CHANNELS 3 Zrotation Yrotation Xrotation
				JOINT LeftToeBase
				{
					OFFSET 0.157640 -0.433110 2.322550 
					CHANNELS 3 Zrotation Yrotation Xrotation
					End Site
					{
						OFFSET 0.000000 0.000000 0.000000 
					}
				}
			}
		}
	}
	JOINT RightUpLeg
	{
		OFFSET -1.305520 -1.794630 0.839290 
		CHANNELS 3 Zrotation Yrotation Xrotation
		JOINT RightLeg
		{
			OFFSET -2.542530 -6.985550 0.000000 
			CHANNELS 3 Zrotation Yrotation Xrotation
			JOINT RightFoot
			{
				OFFSET -2.568260 -7.056230 0.000000 
				CHANNELS 3 Zrotation Yrotation Xrotation
				JOINT RightToeBase
				{
					OFFSET -0.164730 -0.452590 2.363150 
					CHANNELS 3 Zrotation Yrotation Xrotation
					End Site
					{
						OFFSET 0.000000 0.000000 0.000000 
					}
				}
			}
		}
	}
	JOINT Spine
	{
		OFFSET 0.028270 2.035590 -0.193380 
		CHANNELS 3 Zrotation Yrotation Xrotation
		JOINT Spine1
		{
			OFFSET 0.056720 2.048850 -0.042750 
			CHANNELS 3 Zrotation Yrotation Xrotation
			JOINT Neck1
			{
				OFFSET -0.054170 1.746240 0.172020 
				CHANNELS 3 Zrotation Yrotation Xrotation
				JOINT Head
				{
					OFFSET 0.104070 1.761360 -0.123970 
					CHANNELS 3 Zrotation Yrotation Xrotation
					End Site
					{
						OFFSET 0.000000 0.000000 0.000000 
					}
				}
			}
			JOINT LeftArm
			{
				OFFSET 3.362410 1.200890 -0.311210 
				CHANNELS 3 Zrotation Yrotation Xrotation
				JOINT LeftForeArm
				{
					OFFSET 4.983000 -0.000000 -0.000000 
					CHANNELS 3 Zrotation Yrotation Xrotation
					JOINT LeftHand
					{
						OFFSET 3.483560 -0.000000 -0.000000 
						CHANNELS 3 Zrotation Yrotation Xrotation
						JOINT LeftHandIndex1
						{
							OFFSET 0.715260 -0.000000 -0.000000 
							CHANNELS 3 Zrotation Yrotation Xrotation
							End Site
							{
								OFFSET 0.000000 0.000000 0.000000 
							}
						}
					}
				}
			}
			JOINT RightArm
			{
				OFFSET -3.136600 1.374050 -0.404650 
				CHANNELS 3 Zrotation Yrotation Xrotation
				JOINT RightForeArm
				{
					OFFSET -5.241900 -0.000000 -0.000000 
					CHANNELS 3 Zrotation Yrotation Xrotation
					JOINT RightHand
					{
						OFFSET -3.444170 -0.000000 -0.000000 
						CHANNELS 3 Zrotation Yrotation Xrotation
						JOINT RightHandIndex1
						{
							OFFSET -0.622530 -0.000000 -0.000000 
							CHANNELS 3 Zrotation Yrotation Xrotation
							End Site
							{
								OFFSET 0.000000 0.000000 0.000000 
							}
						}
					}
				}
			}
		}
	}
}
MOTION
Frames: 15
Frame Time: 0.041667
0.044216 18.364040 8.649642 -12.155532 5.131877 11.652407 -13.741785 -41.738145 14.721437 -3.613224 -2.276926 -2.948379 -15.332993 44.372290 -22.621659 0.152100 2.513400 6.926700 23.708089 25.974918 0.124765 3.554472 -1.362471 4.280167 8.236274 -25.890557 -4.595598 -0.041300 1.312200 -3.608300 32.507379 7.706795 -19.250041 -13.345619 -1.885112 -10.715333 15.903394 -19.988515 19.366762 3.168700 -9.039800 6.592000 -88.595506 13.121642 14.242596 10.380442 -11.586902 -1.709388 0.299117 1.830159 30.962580 -7.125000 0.000000 0.000000 78.256814 -12.682507 7.780563 -12.995450 17.828852 -2.661344 0.931035 1.743988 40.042571 7.125000 0.000000 0.000000 
0.045374 18.364882 8.648378 -12.159089 5.155687 11.679725 -13.750334 -41.838048 14.742408 -3.614302 -2.264131 -2.921650 -15.352355 44.424865 -22.780919 0.141200 2.421300 6.671500 23.700206 25.921655 0.076564 3.554574 -1.366389 4.287374 8.232320 -25.879611 -4.604475 -0.036300 1.230000 -3.382000 32.403260 7.721841 -19.371220 -13.339901 -1.880353 -10.707496 15.954768 -20.014574 19.482539 3.177600 -9.043300 6.624100 -88.558563 13.213697 14.277510 10.391681 -11.610080 -1.716589 0.313579 1.836532 31.007482 -7.125000 0.000000 0.000000 78.291739 -12.596202 7.572936 -12.947895 17.760340 -2.645550 0.923702 1.758127 40.235824 7.125000 0.000000 0.000000 
0.045900 18.365829 8.648378 -12.122570 5.154104 11.696916 -13.814817 -41.904127 14.787845 -3.616559 -2.259162 -2.912318 -15.362971 44.462157 -22.900900 0.140900 2.419000 6.665100 23.663039 25.907622 0.058111 3.553967 -1.368444 4.287419 8.234662 -25.886485 -4.569310 -0.036900 1.240500 -3.410800 32.282516 7.728549 -19.481668 -13.309636 -1.872767 -10.714533 15.958667 -20.046454 19.627865 3.171700 -9.050600 6.661600 -88.524261 13.280102 14.279110 10.393830 -11.616754 -1.716558 0.319419 1.829503 31.104599 -7.125000 0.000000 0.000000 78.311634 -12.586478 7.557793 -12.947263 17.758345 -2.645663 0.919970 1.764631 40.283006 7.125000 0.000000 0.000000 
0.046111 18.366461 8.648273 -12.113650 5.150294 11.712439 -13.773321 -41.836428 14.720738 -3.613618 -2.256415 -2.913412 -15.357713 44.439066 -22.775924 0.140100 2.412500 6.647200 23.666888 25.938751 0.062843 3.553411 -1.371970 4.295053 8.233568 -25.883841 -4.573632 -0.035300 1.212800 -3.334600 32.199970 7.740245 -19.572275 -13.294559 -1.868978 -10.733566 16.031302 -20.071958 19.745874 3.186900 -9.052700 6.700800 -88.486488 13.334766 14.441033 10.398136 -11.624006 -1.714888 0.299392 1.817861 30.987163 -7.125000 0.000000 0.000000 78.315632 -12.604133 7.699175 -12.959872 17.772726 -2.646816 0.922973 1.751185 40.142392 7.125000 0.000000 0.000000 
0.044005 18.369724 8.658906 -11.976785 5.169562 11.863513 -13.879558 -41.921541 14.662274 -3.611154 -2.254716 -2.943515 -15.391576 44.511697 -22.732360 0.136100 2.377800 6.551000 23.497594 25.985321 0.050165 3.562727 -1.329836 4.181376 8.270895 -25.969294 -4.630625 -0.007300 0.551300 -1.514800 32.017376 7.737470 -19.815518 -13.180357 -1.852420 -10.504605 16.142901 -20.100671 19.742300 3.208700 -9.058800 6.708200 -88.453450 13.412737 14.789707 10.431531 -11.651693 -1.716564 0.250556 1.793127 30.671636 -7.125000 0.000000 0.000000 78.238782 -12.605148 8.096797 -12.901030 17.693116 -2.625980 0.929329 1.738232 39.676215 7.125000 0.000000 0.000000 
0.039794 18.376146 8.680277 -11.733877 5.198118 12.162811 -14.095212 -42.188101 14.611289 -3.611192 -2.260885 -3.016507 -15.457635 44.680535 -22.897761 0.130300 2.326400 6.408600 23.173867 26.025208 -0.030394 3.576685 -1.257562 3.980561 8.331389 -26.111122 -4.644234 -0.009600 -0.633000 1.739600 31.709636 7.727696 -20.219831 -12.985723 -1.821361 -10.020701 16.247057 -20.144151 19.653849 3.221600 -9.074900 6.693900 -88.421996 13.497172 15.140264 10.483336 -11.688345 -1.717482 0.195741 1.747047 30.360657 -7.125000 0.000000 0.000000 78.091390 -12.588136 8.744457 -12.789842 17.543965 -2.592405 0.937222 1.736502 38.975394 7.125000 0.000000 0.000000 
0.037478 18.378989 8.690699 -11.643088 5.213958 12.326480 -14.137468 -42.315456 14.539948 -3.609155 -2.260317 -3.046620 -15.495141 44.764983 -22.952205 0.126700 2.294600 6.320600 23.041504 26.066194 -0.090472 3.581573 -1.233890 3.911655 8.354569 -26.163626 -4.666117 -0.034600 -1.201400 3.303000 31.580218 7.734593 -20.432590 -12.901376 -1.808661 -9.773933 16.288035 -20.180072 19.571688 3.225300 -9.092600 6.682500 -88.416523 13.535405 15.211263 10.500161 -11.696379 -1.715660 0.179415 1.724141 30.280407 -7.125000 0.000000 0.000000 78.023994 -12.595533 9.211554 -12.781302 17.532587 -2.593967 0.937827 1.742800 38.488669 7.125000 0.000000 0.000000 
0.037478 18.378883 8.690489 -11.676763 5.218323 12.328951 -14.066224 -42.277317 14.480740 -3.606429 -2.252574 -3.029179 -15.486738 44.736730 -22.874149 0.127800 2.304700 6.348600 23.082157 26.110609 -0.080955 3.581774 -1.243120 3.939837 8.350359 -26.146919 -4.757958 -0.038600 -1.267400 3.484900 31.615600 7.748146 -20.442470 -12.915524 -1.811527 -9.776745 16.297351 -20.199976 19.501499 3.227200 -9.105500 6.669900 -88.427472 13.530757 15.096084 10.473569 -11.663643 -1.709494 0.182384 1.734574 30.378944 -7.125000 0.000000 0.000000 78.022474 -12.622728 9.505555 -12.851072 17.628431 -2.620861 0.930675 1.753322 38.182562 7.125000 0.000000 0.000000 
0.037689 18.379094 8.690910 -11.698706 5.215319 12.314950 -14.039445 -42.242141 14.466708 -3.607829 -2.254043 -3.023512 -15.451564 44.676493 -22.907845 0.134300 2.362400 6.508200 23.105803 26.124126 -0.064920 3.582468 -1.243102 3.943157 8.350417 -26.145414 -4.795689 -0.040600 -1.300300 3.575400 31.685707 7.746350 -20.385298 -12.932571 -1.817854 -9.791545 16.293022 -20.198898 19.473484 3.226900 -9.106500 6.665700 -88.448939 13.500438 14.978360 10.438485 -11.617300 -1.699868 0.176765 1.745453 30.487381 -7.125000 0.000000 0.000000 77.982893 -12.632183 9.839333 -12.898161 17.697453 -2.640525 0.923483 1.765019 37.906281 7.125000 0.000000 0.000000 
0.038320 18.379515 8.691436 -11.692566 5.200598 12.302365 -14.094822 -42.267970 14.530688 -3.612101 -2.259157 -3.024414 -15.432203 44.659271 -23.041419 0.142200 2.430200 6.696100 23.093369 26.114105 -0.055925 3.582162 -1.241181 3.937149 8.347592 -26.139033 -4.766719 -0.040300 -1.295700 3.562700 31.740140 7.742206 -20.349316 -12.929138 -1.823547 -9.809321 16.261068 -20.185822 19.486355 3.221500 -9.101500 6.668100 -88.481636 13.503094 14.900474 10.423916 -11.597283 -1.695843 0.179469 1.749280 30.512495 -7.125000 0.000000 0.000000 77.935031 -12.650361 10.116591 -12.923221 17.738043 -2.650455 0.916915 1.769524 37.762263 7.125000 0.000000 0.000000 
0.038847 18.379620 8.692068 -11.693367 5.183498 12.290385 -14.090302 -42.218008 14.528351 -3.611872 -2.259903 -3.026785 -15.427093 44.645758 -22.993814 0.138700 2.400100 6.612700 23.106426 26.099378 -0.040957 3.581595 -1.240284 3.937328 8.334965 -26.106935 -4.742691 -0.044400 -1.359400 3.738300 31.682425 7.751393 -20.391194 -12.934137 -1.817752 -9.822721 16.230195 -20.187911 19.544104 3.209500 -9.100300 6.677800 -88.467412 13.557434 14.966366 10.425201 -11.602935 -1.696906 0.180913 1.748325 30.418021 -7.125000 0.000000 0.000000 77.926507 -12.685011 10.300975 -12.952709 17.779368 -2.659511 0.910968 1.768771 37.628640 7.125000 0.000000 0.000000 
0.039899 18.379199 8.692173 -11.727718 5.177719 12.282157 -14.010175 -42.125817 14.467397 -3.608596 -2.259094 -3.030101 -15.421021 44.616151 -22.852205 0.133700 2.357200 6.494000 23.157461 26.068397 -0.039596 3.580217 -1.240820 3.939344 8.319095 -26.073577 -4.691893 -0.044100 -1.355200 3.726600 31.619718 7.774899 -20.456398 -12.962035 -1.810884 -9.835114 16.216675 -20.194973 19.601145 3.203800 -9.101200 6.689700 -88.444836 13.627914 15.154186 10.430749 -11.615096 -1.699335 0.168650 1.747995 30.295418 -7.125000 0.000000 0.000000 77.945234 -12.700133 10.348119 -12.977093 17.809937 -2.668606 0.908851 1.773338 37.547033 7.125000 0.000000 0.000000 
0.041163 18.378989 8.692278 -11.743182 5.167790 12.294708 -13.985052 -42.092649 14.447092 -3.607439 -2.255798 -3.025037 -15.420500 44.609884 -22.808474 0.136400 2.380600 6.558600 23.175362 26.043088 -0.056621 3.578935 -1.243865 3.941710 8.310045 -26.057704 -4.641102 -0.039400 -1.280800 3.521900 31.562451 7.812284 -20.587737 -12.969029 -1.803893 -9.828760 16.189476 -20.175995 19.547746 3.204100 -9.098300 6.669600 -88.447604 13.723547 15.372497 10.451425 -11.644335 -1.706393 0.154328 1.747699 30.163285 -7.125000 0.000000 0.000000 77.962363 -12.703602 10.301454 -12.967052 17.794905 -2.666591 0.912087 1.776047 37.574509 7.125000 0.000000 0.000000 
0.041900 18.378778 8.692699 -11.733559 5.155977 12.316425 -13.983110 -42.061994 14.421367 -3.608006 -2.251070 -3.014616 -15.411338 44.597903 -22.828892 0.138600 2.399200 6.610100 23.162980 26.039992 -0.066215 3.580018 -1.243268 3.936981 8.309471 -26.054760 -4.667130 -0.040400 -1.296800 3.565700 31.494119 7.845291 -20.729756 -12.954937 -1.794766 -9.805768 16.061043 -20.110512 19.412442 3.179100 -9.080900 6.617100 -88.461616 13.796666 15.446143 10.473467 -11.672249 -1.711892 0.145915 1.741442 30.143214 -7.125000 0.000000 0.000000 77.962410 -12.708103 10.285128 -12.934834 17.752899 -2.655341 0.916576 1.771819 37.608941 7.125000 0.000000 0.000000 
0.041794 18.378778 8.693331 -11.744482 5.156222 12.313847 -13.955877 -42.045745 14.408187 -3.608320 -2.252731 -3.019175 -15.402592 44.584106 -22.848769 0.134700 2.365500 6.516900 23.184406 26.067538 -0.033157 3.583022 -1.232650 3.915713 8.310626 -26.053945 -4.737040 -0.043700 -1.349600 3.711200 31.493723 7.843014 -20.727125 -12.952951 -1.799078 -9.826144 16.059706 -20.112535 19.564074 3.166200 -9.068700 6.659000 -88.487958 13.798257 15.299433 10.461179 -11.654534 -1.707440 0.151250 1.741302 30.316956 -7.125000 0.000000 0.000000 77.945369 -12.691186 10.262421 -12.900839 17.710132 -2.643030 0.917151 1.770411 37.671954 7.125000 0.000000 0.000000 
